#!OML:ASF E:\Steps\Project 1\Capture day 1\Session 2\Subject.ASF
:FULLY-SPECIFIED
:DEGREES
727
root -1.0045 17.9905 20.963 -153.058 -4.28202 176.962
lowerback -25.5118 -1.62463 -6.70062
upperback -1.07111 -0.576609 -0.399414
thorax 13.1615 -0.850022 3.14837
lowerneck -2.8951 0.69869 3.00146
upperneck 4.39959 0.895475 -2.79421
head 1.90705 0.420029 -1.37531
rclavicle -1.21507e-014 8.94531e-015
rhumerus -41.3695 -20.8269 -73.4665
rradius 31.4188
rwrist 3.57944
rhand -12.4785 -54.3779
rfingers 7.12502
rthumb 13.5959 -83.9139
lclavicle -1.21507e-014 8.94531e-015
lhumerus -32.7457 4.7164 81.4607
lradius 25.6197
lwrist -2.95802
lhand -23.0276 -13.6097
lfingers 7.12502
lthumb 3.41645 16.3427
rfemur -25.5705 4.89994 18.437
rtibia 8.47118
rfoot -19.2934 -4.9229
rtoes -8.46234
lfemur -27.162 -11.2884 -21.2357
ltibia 10.7216
lfoot -6.67883 -3.73216
ltoes -19.3511
728
root -0.999114 17.9895 20.9549 -153.033 -4.26277 176.935
lowerback -25.672 -1.6209 -6.79865
upperback -1.10529 -0.538774 -0.418889
thorax 13.2054 -0.842901 3.19451
lowerneck -2.74487 0.873376 2.8562
upperneck 3.91163 1.13543 -2.70806
head 1.72698 0.543043 -1.31301
rclavicle 1.49585e-014 1.96797e-014
rhumerus -41.4503 -21.0459 -73.3677
rradius 31.3424
rwrist 3.51026
rhand -12.5292 -53.995
rfingers 7.12502
rthumb 13.547 -83.5343
lclavicle 1.49585e-014 1.96797e-014
lhumerus -32.6704 4.77765 81.4092
lradius 25.5061
lwrist -3.37084
lhand -22.7599 -13.695
lfingers 7.12502
lthumb 3.67498 16.2531
rfemur -25.493 4.71893 18.4791
rtibia 8.31088
rfoot -19.1836 -4.7645
rtoes -9.13656
lfemur -27.1383 -11.2672 -21.2617
ltibia 10.6939
lfoot -6.86032 -3.66448
ltoes -19.7726
729
root -0.991989 17.9895 20.9469 -153.107 -4.33546 176.927
lowerback -25.7012 -1.65013 -6.87778
upperback -1.096 -0.553168 -0.397417
thorax 13.2349 -0.856014 3.25918
lowerneck -2.68633 0.983496 2.7631
upperneck 3.48394 1.28801 -2.73651
head 1.58287 0.619834 -1.30015
rclavicle -2.95692e-015 -2.5842e-015
rhumerus -41.4736 -20.9924 -73.4559
rradius 31.3714
rwrist 2.64404
rhand -13.3181 -53.8383
rfingers 7.12502
rthumb 12.7865 -83.4267
lclavicle -2.95692e-015 -2.5842e-015
lhumerus -32.5112 4.83272 81.4273
lradius 25.3634
lwrist -3.54441
lhand -22.6099 -13.8505
lfingers 7.12502
lthumb 3.8198 16.095
rfemur -25.2551 4.85169 18.495
rtibia 8.12703
rfoot -19.1597 -4.96871
rtoes -9.45318
lfemur -27.0147 -11.3321 -21.2262
ltibia 10.6745
lfoot -7.04481 -3.59698
ltoes -18.7964
730
root -0.98642 17.9913 20.9432 -153.188 -4.41265 176.943
lowerback -25.664 -1.65632 -6.91734
upperback -1.07749 -0.550631 -0.375444
thorax 13.2369 -0.856936 3.30856
lowerneck -2.78473 0.89457 2.91744
upperneck 3.13626 1.16788 -2.99048
head 1.49022 0.557937 -1.40949
rclavicle 9.56651e-015 8.94531e-015
rhumerus -41.4924 -21.1192 -73.4102
rradius 31.485
rwrist 2.50275
rhand -12.9862 -53.883
rfingers 7.12502
rthumb 13.1065 -83.4512
lclavicle 9.56651e-015 8.94531e-015
lhumerus -32.353 4.7067 81.5207
lradius 25.356
lwrist -3.40732
lhand -22.641 -13.8451
lfingers 7.12502
lthumb 3.78982 16.1009
rfemur -25.0709 5.07265 18.5118
rtibia 8.05314
rfoot -19.2246 -5.2961
rtoes -9.87432
lfemur -26.9255 -11.3434 -21.1714
ltibia 10.6683
lfoot -6.97044 -3.52971
ltoes -18.4062
731
root -0.982149 17.9917 20.9408 -153.194 -4.47397 177.002
lowerback -25.6795 -1.64588 -6.89455
upperback -1.11104 -0.549907 -0.357512
thorax 13.2055 -0.855691 3.31636
lowerneck -2.87391 0.799039 3.15242
upperneck 2.95798 1.03587 -3.27325
head 1.45065 0.489456 -1.54376
rclavicle 4.32357e-015 -2.68359e-014
rhumerus -41.511 -21.213 -73.3974
rradius 31.6454
rwrist 2.61228
rhand -12.4359 -54.3973
rfingers 7.12502
rthumb 13.6369 -83.9306
lclavicle 4.32357e-015 -2.68359e-014
lhumerus -32.305 4.58305 81.5478
lradius 25.4487
lwrist -3.325
lhand -22.6008 -13.6273
lfingers 7.12502
lthumb 3.82859 16.3181
rfemur -25.0476 5.01548 18.6251
rtibia 8.08548
rfoot -19.2956 -5.25418
rtoes -9.73653
lfemur -26.9403 -11.3115 -21.0663
ltibia 10.6771
lfoot -6.90711 -3.48169
ltoes -18.8098
732
root -0.977017 17.9923 20.9373 -153.189 -4.54234 177.039
lowerback -25.7175 -1.68158 -6.8651
upperback -1.1704 -0.613867 -0.356673
thorax 13.1628 -0.883881 3.27661
lowerneck -2.80515 0.912465 3.19927
upperneck 2.69366 1.18703 -3.3868
head 1.3615 0.564568 -1.58392
rclavicle 7.00716e-015 1.78906e-015
rhumerus -41.4539 -21.2383 -73.4694
rradius 31.6078
rwrist 2.65519
rhand -12.3424 -54.8981
rfingers 7.12502
rthumb 13.7271 -84.4253
lclavicle 7.00716e-015 1.78906e-015
lhumerus -32.3467 4.57946 81.4811
lradius 25.5248
lwrist -3.25418
lhand -22.6435 -13.3651
lfingers 7.12502
lthumb 3.78739 16.581
rfemur -25.0003 4.89327 18.7283
rtibia 8.00823
rfoot -19.2579 -5.17758
rtoes -9.79987
lfemur -26.9509 -11.3386 -20.9686
ltibia 10.6838
lfoot -6.87777 -3.47256
ltoes -18.9418
733
root -0.971036 17.9924 20.9321 -153.212 -4.58899 177.041
lowerback -25.7397 -1.71653 -6.86153
upperback -1.214 -0.665598 -0.376466
thorax 13.1287 -0.907346 3.2325
lowerneck -2.58067 1.20018 2.98125
upperneck 2.02399 1.5732 -3.36644
head 1.12046 0.758971 -1.52869
rclavicle 6.36111e-015 5.1684e-015
rhumerus -41.4173 -21.2648 -73.5784
rradius 31.6034
rwrist 2.55028
rhand -12.5199 -55.1229
rfingers 7.12502
rthumb 13.556 -84.6616
lclavicle 6.36111e-015 5.1684e-015
lhumerus -32.3855 4.49989 81.4519
lradius 25.5662
lwrist -3.03142
lhand -22.8647 -13.2766
lfingers 7.12502
lthumb 3.57378 16.6732
rfemur -24.8954 4.94021 18.7526
rtibia 7.87135
rfoot -19.1802 -5.25998
rtoes -10.0279
lfemur -26.8869 -11.3433 -20.9309
ltibia 10.6362
lfoot -6.71817 -3.49888
ltoes -18.5352
734
root -0.96618 17.9909 20.9258 -153.203 -4.55314 177.061
lowerback -25.8242 -1.67385 -6.85831
upperback -1.23796 -0.607012 -0.404331
thorax 13.1396 -0.881831 3.21918
lowerneck -2.42638 1.48198 2.77702
upperneck 1.26721 1.94393 -3.38395
head 0.865795 0.944899 -1.49098
rclavicle -1.44119e-015 3.3197e-014
rhumerus -41.4214 -21.2289 -73.7009
rradius 31.7129
rwrist 2.17149
rhand -12.7496 -54.9247
rfingers 7.12502
rthumb 13.3345 -84.4781
lclavicle -1.44119e-015 3.3197e-014
lhumerus -32.365 4.28186 81.4902
lradius 25.6411
lwrist -2.99323
lhand -22.8579 -13.4874
lfingers 7.12502
lthumb 3.58035 16.4623
rfemur -24.8742 5.01123 18.7788
rtibia 7.84143
rfoot -19.1993 -5.20059
rtoes -9.45221
lfemur -26.8218 -11.2384 -20.9203
ltibia 10.5472
lfoot -6.74609 -3.57584
ltoes -18.3036
735
root -0.963084 17.9906 20.9214 -153.23 -4.46601 177.076
lowerback -25.8744 -1.62126 -6.8594
upperback -1.20111 -0.525579 -0.429257
thorax 13.2014 -0.84552 3.2205
lowerneck -2.49189 1.59336 2.85948
upperneck 0.715949 2.07608 -3.55723
head 0.712978 1.00866 -1.55834
rclavicle 1.60022e-014 1.5704e-014
rhumerus -41.2301 -21.1394 -73.8515
rradius 31.7536
rwrist 1.99204
rhand -12.7248 -54.4021
rfingers 7.12502
rthumb 13.3585 -83.9539
lclavicle 1.60022e-014 1.5704e-014
lhumerus -32.2121 4.1829 81.5074
lradius 25.71
lwrist -3.17191
lhand -22.7723 -13.599
lfingers 7.12502
lthumb 3.66301 16.3492
rfemur -24.838 4.97457 18.815
rtibia 7.85471
rfoot -19.2403 -5.04214
rtoes -8.91623
lfemur -26.7173 -11.221 -20.9112
ltibia 10.4462
lfoot -6.91073 -3.52619
ltoes -18.2711
736
root -0.960698 17.9901 20.9173 -153.278 -4.42271 177.102
lowerback -25.9015 -1.60192 -6.82375
upperback -1.13757 -0.495931 -0.445924
thorax 13.288 -0.83021 3.19146
lowerneck -2.67594 1.67666 3.03035
upperneck 0.569912 2.17442 -3.75176
head 0.707876 1.05393 -1.64839
rclavicle -1.33186e-014 -2.10712e-014
rhumerus -40.9207 -21.1001 -74.0108
rradius 31.7446
rwrist 2.05332
rhand -12.4771 -54.2467
rfingers 7.12502
rthumb 13.5972 -83.7826
lclavicle -1.33186e-014 -2.10712e-014
lhumerus -31.9796 4.244 81.4673
lradius 25.7048
lwrist -3.19525
lhand -22.8838 -13.601
lfingers 7.12502
lthumb 3.55534 16.3491
rfemur -24.7416 4.96455 18.8593
rtibia 7.78899
rfoot -19.2294 -5.00152
rtoes -8.856
lfemur -26.6159 -11.325 -20.8507
ltibia 10.3933
lfoot -6.90615 -3.37071
ltoes -18.4651
737
root -0.956166 17.9883 20.9123 -153.289 -4.39855 177.136
lowerback -25.9628 -1.58566 -6.80293
upperback -1.14158 -0.477346 -0.451134
thorax 13.3145 -0.821921 3.17982
lowerneck -2.52725 1.95096 2.8543
upperneck 0.265229 2.53983 -3.73926
head 0.597428 1.23743 -1.60894
rclavicle -2.98177e-016 9.93923e-015
rhumerus -40.7533 -20.8511 -74.2544
rradius 31.8649
rwrist 1.73478
rhand -12.2627 -54.5292
rfingers 7.12502
rthumb 13.8039 -84.0512
lclavicle -2.98177e-016 9.93923e-015
lhumerus -31.8605 4.28199 81.4175
lradius 25.6672
lwrist -3.16473
lhand -22.955 -13.7867
lfingers 7.12502
lthumb 3.48655 16.1645
rfemur -24.6519 5.07567 18.8967
rtibia 7.64383
rfoot -19.1898 -5.11159
rtoes -9.42876
lfemur -26.5748 -11.3232 -20.7813
ltibia 10.3745
lfoot -6.86269 -3.32803
ltoes -18.7034
738
root -0.949277 17.9873 20.9071 -153.336 -4.37594 177.159
lowerback -25.9666 -1.57004 -6.82373
upperback -1.18022 -0.456968 -0.456575
thorax 13.2685 -0.813829 3.19296
lowerneck -2.22406 2.28749 2.50547
upperneck -0.317271 2.98524 -3.62952
head 0.372204 1.46339 -1.51125
rclavicle -4.87022e-015 1.19271e-014
rhumerus -40.678 -20.3913 -74.5918
rradius 32.152
rwrist 1.44332
rhand -11.9025 -55.2985
rfingers 7.12502
rthumb 14.1509 -84.7966
lclavicle -4.87022e-015 1.19271e-014
lhumerus -31.8134 4.19473 81.3915
lradius 25.6207
lwrist -3.23172
lhand -23.1853 -13.8893
lfingers 7.12502
lthumb 3.26415 16.0655
rfemur -24.5314 5.20879 18.9337
rtibia 7.50368
rfoot -19.13 -5.25845
rtoes -10.0934
lfemur -26.4759 -11.227 -20.7484
ltibia 10.2924
lfoot -6.86 -3.34521
ltoes -18.6521
739
root -0.942358 17.9874 20.902 -153.396 -4.34781 177.155
lowerback -25.9313 -1.54365 -6.85137
upperback -1.20048 -0.416041 -0.495206
thorax 13.2205 -0.794867 3.17956
lowerneck -2.18859 2.43994 2.42493
upperneck -0.74071 3.17573 -3.61573
head 0.239698 1.55836 -1.49318
rclavicle 8.84592e-015 4.77083e-015
rhumerus -40.6361 -19.9998 -74.9369
rradius 32.4043
rwrist 1.21044
rhand -11.857 -55.2835
rfingers 7.12502
rthumb 14.1948 -84.7785
lclavicle 8.84592e-015 4.77083e-015
lhumerus -31.7078 4.13256 81.304
lradius 25.5622
lwrist -3.40098
lhand -23.5062 -13.9445
lfingers 7.12502
lthumb 2.95425 16.0148
rfemur -24.4194 5.39013 18.9187
rtibia 7.42422
rfoot -19.1129 -5.39321
rtoes -9.75272
lfemur -26.3252 -11.0843 -20.7785
ltibia 10.1459
lfoot -6.78578 -3.39781
ltoes -19.092
740
root -0.936327 17.9882 20.8997 -153.437 -4.30744 177.128
lowerback -25.8501 -1.55092 -6.91001
upperback -1.24742 -0.42081 -0.50866
thorax 13.1212 -0.798181 3.19653
lowerneck -2.21535 2.52544 2.42364
upperneck -1.07517 3.27517 -3.6819
head 0.145381 1.6062 -1.51473
rclavicle 1.51573e-014 -3.08116e-014
rhumerus -40.635 -19.5318 -75.2356
rradius 32.6615
rwrist 0.906413
rhand -11.8413 -55.3232
rfingers 7.12502
rthumb 14.2099 -84.8172
lclavicle 1.51573e-014 -3.08116e-014
lhumerus -31.6689 4.29318 81.1418
lradius 25.5765
lwrist -3.45475
lhand -23.2079 -14.0706
lfingers 7.12502
lthumb 3.24237 15.8845
rfemur -24.3641 5.57171 18.8545
rtibia 7.46079
rfoot -19.2073 -5.47464
rtoes -9.20232
lfemur -26.2015 -10.9574 -20.834
ltibia 10.0226
lfoot -6.69384 -3.46792
ltoes -20.2939
741
root -0.931128 17.9888 20.8971 -153.492 -4.24076 177.159
lowerback -25.7727 -1.54636 -6.93585
upperback -1.3165 -0.427368 -0.481639
thorax 12.9982 -0.80119 3.24072
lowerneck -2.0135 2.74476 2.2105
upperneck -1.55167 3.55608 -3.70653
head -0.0299412 1.74812 -1.48932
rclavicle 2.48481e-015 -8.15017e-015
rhumerus -40.673 -19.1369 -75.4044
rradius 32.8645
rwrist 0.794966
rhand -11.8692 -55.4196
rfingers 7.12502
rthumb 14.183 -84.9154
lclavicle 2.48481e-015 -8.15017e-015
lhumerus -31.7167 4.41542 81.0332
lradius 25.6802
lwrist -3.3325
lhand -22.6273 -14.0903
lfingers 7.12502
lthumb 3.80306 15.8555
rfemur -24.3149 5.73765 18.8669
rtibia 7.51471
rfoot -19.292 -5.53185
rtoes -9.36771
lfemur -26.0555 -10.859 -20.8104
ltibia 9.88584
lfoot -6.69754 -3.46366
ltoes -20.8604
